<svg xmlns="http://www.w3.org/2000/svg" viewBox="0 0 384 384" width="20" height="20">
  <path fill="currentColor" d="M328.06,256.07l-120.98-.14c-9.37-41.79-68.76-41.82-78.15,0l-72.98.14c-11.09,1.5-10.24,15.7.68,16.4l71.92-.05c10.51,41.96,68.35,42.05,78.91,0l119.2.08c11.36.04,12.92-14.88,1.4-16.43ZM169.86,288.17c-31.43,1.95-34.88-44.17-5.03-47.68,33.22-3.9,36.32,45.74,5.03,47.68Z"/>
  <path fill="currentColor" d="M330.78,177.02c-4.54-1.06-26.65.46-27.7-.44-9.09-42.76-69.03-42.3-78.53.12l-169.43-.07c-10,1.12-9.1,15.13.77,15.74l168.67-.05c10.01,42.17,68.87,42.63,78.53.12.97-.84,21.87.4,25.73-.15,9.06-1.29,9.25-13.58,1.97-15.28ZM268.04,208.01c-34.51,4.18-37.39-45.17-5.69-47.64,30.44-2.37,34.68,44.13,5.69,47.64Z"/>
  <path fill="currentColor" d="M328.12,96.56l-169.05-.08c-3.12-15.59-15.72-28.17-31.4-31.16-21.57-4.11-42.37,9.68-46.74,31.16-.95.82-21.37-.34-25.05.08-10.44,1.19-10.32,14.68-.77,15.74,3.76.42,24.84-.79,25.82.05,9.23,42.65,68.87,42.39,78.53-.12l169.43.07c10.01-1.12,9.08-15.15-.77-15.74ZM120.34,128.77c-29.2.49-32.8-43.68-5.02-47.73,36.13-5.27,37.55,47.18,5.02,47.73Z"/>
</svg>
